<?xml version="1.0" encoding="UTF-8"?>
<svg id="Layer_2" xmlns="http://www.w3.org/2000/svg" viewBox="0 0 1024 1024">
  <defs>
    <style>
      .cls-1 {
        fill: #fff;
      }

      .cls-2 {
        fill: #077fa8;
      }
    </style>
  </defs>
  <g id="Layer_1-2" data-name="Layer_1">
    <rect class="cls-2" width="1024" height="1024"/>
    <g id="Lock_In_x21_">
      <g>
        <path class="cls-1" d="M547.82,857.14c-29.63,0-56.83-16.12-71.04-42.09l-89.53-163.7c-10.36-18.96-12.72-40.81-6.66-61.55s19.85-37.86,38.81-48.22l206.45-112.91c11.88-6.49,25.28-9.93,38.74-9.93,29.63,0,56.83,16.12,71.04,42.09l89.53,163.7c21.41,39.14,6.97,88.38-32.16,109.78l-206.45,112.91c-11.88,6.49-25.28,9.93-38.74,9.93l.02-.02Z"/>
        <path class="cls-1" d="M664.59,419.59c28.31,0,55.75,15.05,70.28,41.64l89.53,163.7c21.2,38.78,6.96,87.41-31.82,108.61l-206.45,112.91c-12.19,6.66-25.34,9.82-38.33,9.82-28.31,0-55.75-15.05-70.28-41.64l-89.53-163.7c-21.2-38.78-6.96-87.41,31.82-108.61l206.45-112.91c12.19-6.66,25.34-9.82,38.33-9.82M664.59,417.86v1.73-1.73h0c-13.6,0-27.14,3.47-39.16,10.05l-206.45,112.91c-39.55,21.63-54.12,71.41-32.51,110.96l89.53,163.7c14.35,26.24,41.87,42.54,71.8,42.54,13.6,0,27.14-3.47,39.16-10.05l206.45-112.91c19.16-10.48,33.1-27.8,39.22-48.74,6.15-20.96,3.75-43.04-6.73-62.2l-89.53-163.7c-14.35-26.24-41.87-42.54-71.79-42.54h0v-.02Z"/>
      </g>
      <path class="cls-1" d="M601.06,312.72c17.25,29.63,27.67,65.05,30.49,102.46,7.58-2.87,19.77-6.44,35.08-6.49,14-.05,25.33,2.88,32.7,5.4.98-22.37-.67-82.78-39.07-144.78-25.55-41.26-62.53-73.37-107.52-89.96-45.04-16.59-114.79-22.51-175.48,10.67-18.89,10.32-35.58,23.84-49.62,40.19-57.54,66.95-61.22,168.19-9.03,246.38,2.19,5.58,6.63,10.01,12.24,12.21,5.56,2.18,11.65,1.95,16.71-.64l.45-.24c4.7-2.57,8.25-7.16,9.74-12.59,2.07-7.54-1.21-14.48-2.18-16.64-5.89-13.12-24.41-71.09-15.21-117.31,7.96-40.02,35.69-66.09,41.76-71.58,3.61-3.26,12.52-10.89,25.48-17.99,31.08-16.99,70.27-22.29,102.29-13.83,36.32,9.6,68.71,36.13,91.17,74.72l-.02.02Z"/>
      <path class="cls-1" d="M324.09,521.16l-112.89,49.31c-8.37,3.66-18.13-.17-21.79-8.55-3.66-8.37.17-18.13,8.55-21.79,1.36-.59,2.83-1,4.23-1.21l121.9-17.77h0Z"/>
      <path class="cls-1" d="M343.42,537.94l-24.53,73.75c-2.92,8.79-12.43,13.55-21.22,10.63-11.43-3.5-15.24-18.77-7.03-27.31l52.78-57.08h0Z"/>
    </g>
  </g>
</svg>